<svg width="1565" height="400" viewBox="0 0 1565 400" fill="none" xmlns="http://www.w3.org/2000/svg">
<path fill-rule="evenodd" clip-rule="evenodd" d="M389.349 278.716C393.911 278.245 396.212 277.859 398.941 281.743C400.476 288.874 392.305 301.118 388.32 307.137C363.661 344.377 326.025 372.229 283.927 386.751C227.332 406.519 165.145 402.574 111.505 375.814C118.13 356.664 131.913 337.541 148.545 325.776C181.12 302.569 213.371 313.018 249.435 313.876C263.109 314.34 277.258 311.945 290.716 309.559C302.25 307.514 308.64 315.747 300.397 323.74C282.712 340.886 248.003 340.649 224.438 342.921C278.449 355.347 316.962 347.91 357.037 307.542C367.66 296.842 375.612 284.85 389.349 278.716ZM161.025 0.720215C160.919 0.842553 139.973 10.1552 137.33 11.4077C52.6942 51.5114 -3.11203 146.974 26.8503 239.645C42.3562 287.603 73.1605 325.086 117.577 346.864C115.778 350.199 106.257 371.156 105.075 371.983L102.788 371.118C56.2439 343.289 23.2617 304.37 7.91473 251.709C-6.75365 201.471 -0.878367 147.468 24.2507 101.554C46.2893 61.6453 81.2379 30.403 123.369 12.9487C135.621 7.77613 147.478 4.29549 160.174 0.604004L161.025 0.720215ZM338.955 305.008C345.326 298.977 365.398 277.026 373.813 281.93C372.929 287.371 342.099 315.384 335.222 320.348C325.677 327.223 315.239 332.767 304.196 336.827C299.804 338.456 294.936 339.787 290.416 341.118C292.282 339.813 300.314 335.974 302.762 334.741L304.056 333.862C317.32 324.788 327.272 316.067 338.955 305.008Z" fill="#00295C"/>
<path d="M131.083 34.2282C139.886 28.4788 147.594 23.3111 157.025 18.5806C191.907 0.999916 231.702 -4.30557 269.974 3.52225C313.111 12.8235 350.865 38.6907 375.103 75.5504C401.967 116.586 413.072 171.07 398.861 218.623L398.235 218.565L397.256 216.91C398.506 211.843 398.458 203.37 398.446 197.985C398.597 169.033 392.015 140.441 379.219 114.466C358.603 72.1625 321.792 39.9554 277.112 25.1307C231.322 9.42962 175.549 13.8605 132.21 35.0477L131.083 34.2282Z" fill="#C08006"/>
<path d="M132.211 35.0476C130.404 36.1167 127.257 38.3457 125.357 38.2422C126.385 36.4711 129.187 35.2639 131.084 34.2281L132.211 35.0476Z" fill="#C08006"/>
<path d="M397.256 216.91L398.235 218.565L398.861 218.623C398.416 222.166 397.558 225.865 396.811 229.377L394.735 229.516L394.778 229.928L396.486 230.447L394.913 230.729L396.244 231.018L395.03 231.118L395.541 231.739C394.211 229.427 396.615 219.998 397.256 216.91Z" fill="#C08006"/>
<path d="M105.767 76.8229C117.713 85.7644 121.728 87.5707 136.822 89.1536C137.213 119.419 134.653 135.547 105.974 150.776C101.11 149.119 92.7394 143.334 89.1582 139.549C74.3477 123.899 75.0166 108.528 75.1536 89.101C87.5639 89.1354 96.5342 84.4048 105.767 76.8229ZM79.3145 93.3519C79.1368 109.845 79.7459 123.595 91.9918 136.644C94.4123 139.223 103.057 145.34 106.209 146.028C130.155 131.412 132.477 119.577 132.686 92.9762C121.677 91.6777 114.834 89.5568 105.856 82.4889C96.1787 89.9276 91.3033 91.099 79.3145 93.3519Z" fill="#1E5327"/>
<path d="M105.601 86.1051C114.959 92.0156 118.838 93.9005 129.888 95.56C130.266 117.598 125.995 130.927 106.434 142.566C103.45 142.178 96.2154 137.136 94.0731 134.84C83.2044 123.184 81.9607 110.666 82.1329 95.869C92.3278 93.7713 97.1126 92.5514 105.601 86.1051ZM102.618 117.539L94.7631 109.796L90.5383 114.767L95.1608 119.146L102.816 127.09C109.207 119.996 116.158 111.306 122.697 104.672C121.751 103.451 120.1 101.114 118.944 100.284L102.618 117.539Z" fill="#1E5327"/>
<path fill-rule="evenodd" clip-rule="evenodd" d="M185.973 113.71C194.656 113.036 201.406 116.368 209.766 118.37C215.072 119.641 222.995 118.247 225.009 123.089C223.528 130.535 205.292 127.195 198.736 126.818C203.135 128.729 207.788 129.998 212.549 130.588C226.034 132.382 224.752 126.725 235.113 119.769C238.404 117.559 241.817 114.906 245.962 115.511C248.446 117.19 247.69 116.312 248.906 119.181C244.33 125.2 233.352 134.533 226.779 138.275C212.294 146.52 200.342 141.619 185.472 137.375C181.438 139.212 177.308 141.815 173.197 140.414C170.459 137.118 172.017 123.735 171.991 117.641C176.973 116.774 181.194 115.276 185.973 113.71ZM206.906 62.6868C221.269 59.9723 235.113 69.4142 237.822 83.7717C240.531 98.1291 231.079 111.962 216.714 114.663C202.357 117.363 188.529 107.922 185.821 93.5735C183.115 79.2253 192.553 65.3991 206.906 62.6868ZM232.296 86.6672C231.196 75.4005 221.193 67.1412 209.916 68.1868C198.563 69.2395 190.232 79.3207 191.339 90.6633C192.447 102.006 202.572 110.285 213.914 109.124C225.18 107.97 233.396 97.9331 232.296 86.6672ZM202.84 75.7825C205.478 75.746 219.746 75.6388 220.884 76.51C219.331 77.8486 217.624 79.1188 216.653 80.9075L217.367 82.096C218.736 82.2195 219.024 82.2107 220.242 82.8313C219.57 85.2781 212.102 91.1528 209.347 91.9934C212.242 95.0961 215.396 99.2381 218.096 102.603C210.095 102.687 206.42 95.4508 201.737 89.4954C206.491 89.1358 208.664 89.5481 211.977 86.2376C211.4 84.178 205.939 86.2087 202.91 84.4309L203.317 83.009C205.593 81.379 207.963 82.598 211.195 81.8381L211.106 80.3157C208.536 78.2524 206.391 80.3549 203.235 78.3733L202.84 75.7825Z" fill="#00295C"/>
<path fill-rule="evenodd" clip-rule="evenodd" d="M382.596 193.668C382.802 197.05 382.101 200.9 381.603 204.296C373.638 237.95 347.093 253.756 322.202 274.279C312.31 282.436 304.255 290.771 295.494 300.019C280.286 302.19 266.956 304.647 251.516 304.501C269.27 265.068 274.98 251.373 275.935 206.798C295.047 245.452 338.273 244.404 366.198 215.766C371.524 210.304 376.121 203.41 380.329 197.052L381.963 193.735L382.596 193.668ZM310.623 183.479C322.043 181.104 333.231 188.419 335.629 199.829C338.027 211.239 330.732 222.436 319.321 224.857C307.879 227.284 296.638 219.966 294.232 208.524C291.827 197.082 299.171 185.86 310.623 183.479Z" fill="#C08006"/>
<path fill-rule="evenodd" clip-rule="evenodd" d="M279.183 165.158C273.33 187.823 262.906 207.212 253.617 228.647C243.684 253.183 235.374 276.812 232.191 303.331C211.883 301.434 203.469 300.309 183.185 302.034C180.114 275.051 172.856 248.71 161.673 223.959C154.147 206.951 142.493 183.641 138.286 166.104C184.957 229.793 234.538 233.306 279.183 165.158ZM204.093 162.924C215.451 160.189 226.875 167.183 229.599 178.538C232.323 189.894 225.313 201.306 213.948 204.016C202.602 206.722 191.207 199.728 188.487 188.39C185.768 177.051 192.752 165.655 204.093 162.924Z" fill="#00295C"/>
<path fill-rule="evenodd" clip-rule="evenodd" d="M35.0332 185.643C44.9266 204.953 57.1288 220.746 77.1885 230.23C103.299 242.574 128.058 232.628 139.88 206.806C140.896 239.734 145.595 267.114 160.369 297.111L164.742 305.886C153.914 309.915 145.301 314.581 136.568 322.226C126.171 307.063 116.311 293.635 102.857 280.824C71.4877 250.951 38.7249 232.822 35.0332 185.643ZM99.3154 183.588C110.652 182.435 120.825 190.572 122.184 201.88C123.542 213.189 115.587 223.503 104.3 225.066C96.8137 226.103 89.351 223.02 84.7812 217.003C80.2121 210.985 79.2492 202.97 82.2627 196.042C85.2762 189.114 91.7963 184.352 99.3154 183.588Z" fill="#1E5327"/>
<path fill-rule="evenodd" clip-rule="evenodd" d="M309.299 108.394C310.233 112.014 313.837 128.185 315.327 129.92C318.162 128.679 322.007 117.494 323.573 113.899C326.137 121.361 331.976 117.945 339.916 118.051C336.114 123.752 327.167 132.732 322.111 138.01L312.894 147.122C305.563 139.586 291.314 126.262 286.237 118.048C289.771 118.047 293.392 118.119 296.897 117.74C297.798 117.642 298.1 116.876 298.836 115.964C301.514 115.993 300.954 119.677 304.248 120.737C305.865 119.359 308.174 111.286 309.299 108.394ZM296.928 84.2429C297.463 84.2893 297.997 84.3515 298.528 84.4294C306.439 85.5791 308.414 88.0504 312.988 94.2087C327.128 73.4375 352.628 87.7972 341.946 114.311L327.383 114.335L323.084 105.03C321.572 107.768 319.994 111.824 318.741 114.801L316.577 121.35C314.928 114.991 311.881 101.84 309.315 96.4148C307.533 100.514 304.666 112.537 302.763 113.911C301.641 112.339 301.161 111.389 299.375 110.664C297.129 111.536 297.523 111.856 296.097 114.352L284.011 114.333C278.062 100.604 280.062 87.0064 296.928 84.2429Z" fill="#1E5327"/>
<path d="M154.976 145.105H153.176V78.3406H154.976V145.105ZM263.866 145.105H262.066V78.3406H263.866V145.105Z" fill="#C08006"/>
<path d="M1048.44 33.4628C1061.26 32.8084 1069.27 32.9614 1081.44 37.3884C1099.33 43.897 1112.19 64.963 1097.02 80.8188C1092.63 85.4044 1088.72 86.6187 1083.07 88.9011C1084.62 86.6387 1086.7 83.6696 1087.91 81.2545C1090.97 75.0453 1091.42 67.8742 1089.18 61.3273C1079.51 33.0543 1032.31 33.6553 1020.59 60.18C1005.41 94.5139 1041.14 113.129 1066 126.645C1078.63 133.513 1091.7 140.447 1103.52 148.647C1132.26 167.36 1148.58 200.668 1131.93 233.549C1109.96 276.978 1051.79 282.892 1012.22 263.458C1001.17 256.646 992.72 250.722 987.001 238.22C982.627 228.797 982.171 218.025 985.738 208.267C990.193 196.383 997.999 191.533 1008.79 186.692C1008.09 187.99 1007.04 189.863 1006.15 190.992C989.001 212.8 999.558 239.368 1020.48 254.042C1035.82 264.726 1054.76 268.91 1073.17 265.678C1100.07 260.935 1123.7 237.34 1117.46 208.882C1109.33 171.843 1058.22 157.318 1030.76 137.617C1016.53 128.015 1001.02 114.325 998.399 96.0816C993.016 58.7417 1015.2 39.8087 1048.44 33.4628Z" fill="#C08006"/>
<path d="M1326.75 65.8591L1327.27 66.038C1329.42 68.6483 1328.45 91.8078 1328.45 97.1424C1379.21 97.7132 1431.16 96.1415 1482.03 96.8882C1503.87 97.2087 1527.21 96.1815 1548.84 97.2567C1551.78 100.442 1555.01 104.388 1557.88 107.723L1328.69 107.744C1327.2 143.428 1328.58 180.664 1328.77 216.422C1328.89 237.173 1342.31 239.053 1357.29 228.6C1358.96 228.659 1359.66 229.556 1360.24 230.875C1360.03 233.319 1358.49 234.425 1356.92 236.186C1341.97 252.987 1309.26 251.281 1306.26 225.203C1304.68 211.458 1305.35 196.231 1305.35 181.558C1305.21 156.998 1305.25 132.436 1305.48 107.876C1287.37 106.985 1262.05 107.722 1243.23 107.722L1119.6 107.655C1122.62 104.307 1126.6 100.47 1129.81 97.1896C1169.17 96.1327 1209.08 97.3774 1248.51 96.893C1267.36 96.6611 1286.9 96.6835 1305.72 97.2159C1306.44 91.1946 1306.67 83.8566 1306.98 77.717C1311.67 73.7661 1321.29 68.7394 1326.75 65.8591Z" fill="#C08006"/>
<path d="M552.819 45.5888C575.741 42.7405 606.826 51.9326 625.326 66.0019C625.136 72.2974 625.341 103.073 620.324 105.01C616.835 103.061 615.045 91.305 613.059 86.9865C599.824 58.1961 569.119 46.9641 539.05 55.5802C504.878 65.3715 489.918 101.487 487.625 134.254C485.039 171.238 494.64 210.862 529.154 230.694C545.313 239.934 563.508 241.007 581.352 235.829C595.423 231.353 608.277 221.211 615.859 208.374C618.155 204.486 620.462 195.354 623.937 193.337L625.166 193.824C627.702 198.965 625.193 220.631 624.749 227.308C586.605 253.167 526.314 254.268 489.909 224.737C448.557 190.942 446.087 121.683 478.908 81.2905C498.589 57.0689 523.25 48.5569 552.819 45.5888Z" fill="#00295C"/>
<path d="M690.915 123.073C758.073 118.152 731.4 183.786 737.718 224.949C739.806 238.554 745.388 235.525 754.386 233.596L755.642 234.496C755.434 245.064 733.255 249.985 725.271 244.207C717.827 238.818 717.555 235.378 715.526 227.115C714.618 228.114 713.688 229.093 712.735 230.049C696.066 246.994 669.759 255.539 650.926 236.946C649.181 234.705 647.22 231.604 646.376 228.886C633.044 185.938 688.985 179.788 714.819 170.489C714.847 159.118 716.063 144.59 706.618 136.32C702.074 132.418 696.181 130.452 690.202 130.843C666.218 132.615 667.262 150.335 658.337 160.727C656.643 160.979 655.401 161.396 653.968 160.607C653.25 155.624 653.449 145.814 653.427 140.366C665.608 129.862 674.633 125.189 690.915 123.073ZM675.116 230.62C691.689 239.66 705.477 232.047 714.67 216.951C714.777 209.269 715.46 184.311 714.447 178.545C713.156 177.757 713.746 177.887 712.213 178.082C697.629 182.529 678.311 187.896 670.406 202.215C665.161 211.715 667.432 223.038 675.116 230.62Z" fill="#00295C"/>
<path d="M1504.09 123.121C1504.64 123.039 1505.2 122.975 1505.75 122.93C1513.97 122.193 1529.5 124.989 1535.96 131.237C1557.43 152.023 1543.44 198.059 1547.92 225.282C1550.78 242.71 1557.84 230.942 1564.5 236.55C1564.39 245.127 1529.73 258.815 1526.17 227.43C1509.96 244.952 1479.67 258.435 1461.81 235.836C1455.45 226.753 1453.42 214.131 1458.85 204.236C1470.35 183.279 1503.6 177.596 1524.78 170.855C1525.21 153.999 1525.28 132.153 1503.28 131.258C1483.22 130.441 1478.95 147.065 1470.06 160.46C1469.16 161.809 1467.47 161.715 1466 161.64C1464 158.815 1464.69 144.882 1464.79 140.896C1477.11 129.594 1487.46 124.951 1504.09 123.121ZM1485.72 230.623C1503.51 240.953 1513.78 231.429 1524.83 217.243C1524.87 212.412 1525.7 180.289 1524.11 178.173C1509.15 182.654 1489.68 187.491 1481.42 202.228C1476.34 211.317 1478.6 223.167 1485.72 230.623Z" fill="#C08006"/>
<path d="M914.307 123.025C948.923 120.476 969.07 141.102 966.838 175.507C942.9 176.584 911.02 175.607 886.57 175.548C886.394 189.835 887.514 202.393 895.84 214.6C910.676 236.344 935.006 239.026 956.049 225.071C958.376 222.784 962.535 217.585 965.647 220.513C965.527 223.084 964.303 225.217 962.743 227.22C945.907 250.172 906.685 253.915 884.818 235.991C844.284 202.759 860.16 130.736 914.307 123.025ZM887.066 168.568L919.074 168.524C927.16 168.479 935.654 168.571 943.708 168.364C945.747 146.381 937.845 128.764 913.419 130.146C894.792 136.701 889.217 149.51 887.066 168.568Z" fill="#00295C"/>
<path d="M1183.99 126.282L1184.42 126.249C1192.14 129.731 1180 210.478 1192.67 227.025C1196.29 231.758 1202.51 233.981 1208.28 234.692C1217.58 235.839 1224.46 232.663 1231.68 226.981C1238.11 221.922 1241.33 215.922 1242.27 207.83C1243.11 200.452 1243.63 146.224 1241.26 142.423C1238.21 137.538 1231.57 138.243 1228.35 134.219L1228.73 132.719C1235.47 130.551 1257.53 127.282 1265.13 126.206C1265.93 134.006 1265.63 145.243 1265.62 153.226L1265.57 197.357C1265.49 207.581 1264.88 217.584 1266.27 227.788C1268.04 240.823 1280.06 232.232 1281.49 239.708L1280.46 241.14C1275.46 244.04 1267.46 245.235 1261.75 245.874C1244.86 247.762 1243.82 236.997 1243.19 223.641C1240.83 227.16 1238.09 230.408 1235.02 233.327C1225.41 242.429 1212.57 248.359 1199.3 247.413C1163.87 244.888 1163.31 221.214 1163.44 194.143L1163.65 160.858C1163.67 156.894 1164.13 147.843 1162.71 144.442C1160.45 139.038 1152.99 137.966 1149.33 134.042L1149.5 132.806C1156.62 130.45 1175.89 127.657 1183.99 126.282Z" fill="#C08006"/>
<path d="M835.342 122.929C844.548 122.225 854.905 126.065 856.169 136.935C856.585 140.488 854.225 144.072 851.834 146.786C842.724 156.702 836.758 137.97 826.008 139.463C814.139 140.53 806.309 155.221 805.037 166.337C802.934 184.705 804.15 205.904 804.222 224.57C804.23 227.588 804.646 232.431 807.101 234.362C811.572 237.873 817.266 239.511 822.449 242.071L821.977 243.767C817.45 244.808 779.404 244.451 772.309 244.446C771.518 244.466 770.734 244.472 769.942 244.466C767.207 244.421 766.751 244.681 765.287 243.154C765.327 242.44 765.375 241.592 765.423 240.609C768.638 238.232 775.869 238.451 778.596 235.367C780.076 233.686 780.763 231.094 780.859 229.607C781.555 218.945 781.315 207.804 781.331 197.117C781.355 181.203 781.307 165.395 781.467 149.495C781.587 138.237 770.078 137.706 765.647 133.389L765.999 132.051C770.398 130.444 794.896 125.951 801.886 124.395C803.502 132.782 803.558 142.167 803.598 150.677C804.933 148.454 806.285 146.24 807.653 144.035C814.731 132.754 822.305 125.928 835.342 122.929Z" fill="#00295C"/>
<path d="M1433.7 123.842C1439.52 123.134 1446.87 126.216 1449.68 131.573C1451.61 135.238 1451.97 139.521 1450.7 143.457C1449.98 145.713 1447.74 149.594 1445.51 150.244C1437.33 152.637 1434.6 143.278 1425.36 139.934C1410.15 144.003 1404.54 155.332 1403.87 170.822C1403.03 189.952 1402.82 212.866 1404.6 231.898C1405.12 237.523 1419.08 238.375 1420.98 243.08L1420.25 244.14C1406.4 244.96 1388.92 244.494 1374.76 244.448C1371.37 244.47 1368.27 244.902 1365.37 243.21C1366.5 239.858 1377.31 237.648 1379.95 231.382C1381.79 227.025 1381.89 150.47 1379.99 145.578C1377.26 138.592 1367.29 137.49 1365.74 133.381C1368.52 131.262 1394.96 126.711 1400.65 125.511C1403.01 133.999 1402.95 143.563 1402.46 152.304C1410.81 136.528 1415.01 127.291 1433.7 123.842Z" fill="#C08006"/>
<path d="M610.795 342.299V314.299H614.795V342.299H610.795ZM590.715 342.299V314.299H594.715V342.299H590.715ZM594.315 329.819V326.339H611.155V329.819H594.315ZM620.536 342.299L633.216 314.299H637.176L649.896 342.299H645.696L634.376 316.539H635.976L624.656 342.299H620.536ZM625.936 335.299L627.016 332.099H642.776L643.936 335.299H625.936ZM655.672 342.299V314.299H666.592C670.219 314.299 673.072 315.166 675.152 316.899C677.232 318.606 678.272 320.992 678.272 324.059C678.272 326.086 677.806 327.832 676.872 329.299C675.939 330.739 674.606 331.846 672.872 332.619C671.139 333.392 669.046 333.779 666.592 333.779H657.872L659.672 331.939V342.299H655.672ZM674.392 342.299L667.272 332.139H671.552L678.752 342.299H674.392ZM659.672 332.339L657.872 330.379H666.472C669.032 330.379 670.966 329.832 672.272 328.739C673.606 327.619 674.272 326.059 674.272 324.059C674.272 322.059 673.606 320.512 672.272 319.419C670.966 318.326 669.032 317.779 666.472 317.779H657.872L659.672 315.779V332.339ZM696.197 342.299V339.579L715.037 316.219L715.477 317.779H696.477V314.299H719.077V317.019L700.317 340.379L699.837 338.819H719.597V342.299H696.197ZM722.326 342.299L735.006 314.299H738.966L751.686 342.299H747.486L736.166 316.539H737.766L726.446 342.299H722.326ZM727.726 335.299L728.806 332.099H744.566L745.726 335.299H727.726ZM757.463 342.299V314.299H768.383C772.01 314.299 774.863 315.166 776.943 316.899C779.023 318.606 780.063 320.992 780.063 324.059C780.063 326.086 779.596 327.832 778.663 329.299C777.73 330.739 776.396 331.846 774.663 332.619C772.93 333.392 770.836 333.779 768.383 333.779H759.663L761.463 331.939V342.299H757.463ZM776.183 342.299L769.063 332.139H773.343L780.543 342.299H776.183ZM761.463 332.339L759.663 330.379H768.263C770.823 330.379 772.756 329.832 774.063 328.739C775.396 327.619 776.063 326.059 776.063 324.059C776.063 322.059 775.396 320.512 774.063 319.419C772.756 318.326 770.823 317.779 768.263 317.779H759.663L761.463 315.779V332.339ZM799.726 342.619C796.046 342.619 793.152 341.566 791.046 339.459C788.939 337.352 787.886 334.272 787.886 330.219V314.299H791.886V330.059C791.886 333.179 792.566 335.459 793.926 336.899C795.312 338.339 797.259 339.059 799.766 339.059C802.299 339.059 804.246 338.339 805.606 336.899C806.992 335.459 807.686 333.179 807.686 330.059V314.299H811.566V330.219C811.566 334.272 810.512 337.352 808.406 339.459C806.326 341.566 803.432 342.619 799.726 342.619ZM821.366 342.299V314.299H832.286C835.913 314.299 838.766 315.166 840.846 316.899C842.926 318.606 843.966 320.992 843.966 324.059C843.966 326.086 843.5 327.832 842.566 329.299C841.633 330.739 840.3 331.846 838.566 332.619C836.833 333.392 834.74 333.779 832.286 333.779H823.566L825.366 331.939V342.299H821.366ZM840.086 342.299L832.966 332.139H837.246L844.446 342.299H840.086ZM825.366 332.339L823.566 330.379H832.166C834.726 330.379 836.66 329.832 837.966 328.739C839.3 327.619 839.966 326.059 839.966 324.059C839.966 322.059 839.3 320.512 837.966 319.419C836.66 318.326 834.726 317.779 832.166 317.779H823.566L825.366 315.779V332.339ZM847.789 342.299L860.469 314.299H864.429L877.149 342.299H872.949L861.629 316.539H863.229L851.909 342.299H847.789ZM853.189 335.299L854.269 332.099H870.029L871.189 335.299H853.189ZM887.079 342.299V317.779H877.479V314.299H900.639V317.779H891.039V342.299H887.079ZM922.458 335.539L922.258 330.659L938.138 314.299H942.698L930.418 327.259L928.178 329.739L922.458 335.539ZM918.938 342.299V314.299H922.938V342.299H918.938ZM938.778 342.299L927.298 328.939L929.978 325.979L943.458 342.299H938.778ZM943.915 342.299L956.595 314.299H960.555L973.275 342.299H969.075L957.755 316.539H959.355L948.035 342.299H943.915ZM949.315 335.299L950.395 332.099H966.155L967.315 335.299H949.315ZM999.554 342.619C997.421 342.619 995.381 342.299 993.434 341.659C991.488 340.992 989.954 340.139 988.834 339.099L990.314 335.979C991.381 336.912 992.741 337.686 994.394 338.299C996.048 338.912 997.768 339.219 999.554 339.219C1001.18 339.219 1002.5 339.032 1003.51 338.659C1004.53 338.286 1005.27 337.779 1005.75 337.139C1006.23 336.472 1006.47 335.726 1006.47 334.899C1006.47 333.939 1006.15 333.166 1005.51 332.579C1004.9 331.992 1004.09 331.526 1003.07 331.179C1002.09 330.806 1000.99 330.486 999.794 330.219C998.594 329.952 997.381 329.646 996.154 329.299C994.954 328.926 993.848 328.459 992.834 327.899C991.848 327.339 991.048 326.592 990.434 325.659C989.821 324.699 989.514 323.472 989.514 321.979C989.514 320.539 989.888 319.219 990.634 318.019C991.408 316.792 992.581 315.819 994.154 315.099C995.754 314.352 997.781 313.979 1000.23 313.979C1001.86 313.979 1003.47 314.192 1005.07 314.619C1006.67 315.046 1008.06 315.659 1009.23 316.459L1007.91 319.659C1006.71 318.859 1005.45 318.286 1004.11 317.939C1002.78 317.566 1001.49 317.379 1000.23 317.379C998.661 317.379 997.368 317.579 996.354 317.979C995.341 318.379 994.594 318.912 994.114 319.579C993.661 320.246 993.434 320.992 993.434 321.819C993.434 322.806 993.741 323.592 994.354 324.179C994.994 324.766 995.808 325.232 996.794 325.579C997.808 325.926 998.914 326.246 1000.11 326.539C1001.31 326.806 1002.51 327.112 1003.71 327.459C1004.94 327.806 1006.05 328.259 1007.03 328.819C1008.05 329.379 1008.86 330.126 1009.47 331.059C1010.09 331.992 1010.39 333.192 1010.39 334.659C1010.39 336.072 1010.01 337.392 1009.23 338.619C1008.46 339.819 1007.26 340.792 1005.63 341.539C1004.03 342.259 1002.01 342.619 999.554 342.619ZM1013.6 342.299L1026.28 314.299H1030.24L1042.96 342.299H1038.76L1027.44 316.539H1029.04L1017.72 342.299H1013.6ZM1019 335.299L1020.08 332.099H1035.84L1037 335.299H1019ZM1068.81 342.299V314.299H1072.81V342.299H1068.81ZM1048.73 342.299V314.299H1052.73V342.299H1048.73ZM1052.33 329.819V326.339H1069.17V329.819H1052.33ZM1082.8 342.299V314.299H1086.8V342.299H1082.8ZM1109.12 342.299V314.299H1112.4L1124.96 335.459H1123.2L1135.6 314.299H1138.88L1138.92 342.299H1135.08L1135.04 320.339H1135.96L1124.92 338.899H1123.08L1111.96 320.339H1112.96V342.299H1109.12ZM1144.68 342.299L1157.36 314.299H1161.32L1174.04 342.299H1169.84L1158.52 316.539H1160.12L1148.8 342.299H1144.68ZM1150.08 335.299L1151.16 332.099H1166.92L1168.08 335.299H1150.08ZM1179.82 342.299V314.299H1190.74C1194.37 314.299 1197.22 315.166 1199.3 316.899C1201.38 318.606 1202.42 320.992 1202.42 324.059C1202.42 326.086 1201.95 327.832 1201.02 329.299C1200.09 330.739 1198.75 331.846 1197.02 332.619C1195.29 333.392 1193.19 333.779 1190.74 333.779H1182.02L1183.82 331.939V342.299H1179.82ZM1198.54 342.299L1191.42 332.139H1195.7L1202.9 342.299H1198.54ZM1183.82 332.339L1182.02 330.379H1190.62C1193.18 330.379 1195.11 329.832 1196.42 328.739C1197.75 327.619 1198.42 326.059 1198.42 324.059C1198.42 322.059 1197.75 320.512 1196.42 319.419C1195.11 318.326 1193.18 317.779 1190.62 317.779H1182.02L1183.82 315.779V332.339ZM1223.12 342.619C1220.96 342.619 1218.98 342.272 1217.16 341.579C1215.35 340.859 1213.78 339.859 1212.44 338.579C1211.11 337.272 1210.07 335.752 1209.32 334.019C1208.58 332.286 1208.2 330.379 1208.2 328.299C1208.2 326.219 1208.58 324.312 1209.32 322.579C1210.07 320.846 1211.11 319.339 1212.44 318.059C1213.8 316.752 1215.39 315.752 1217.2 315.059C1219.02 314.339 1221.02 313.979 1223.2 313.979C1225.42 313.979 1227.44 314.339 1229.28 315.059C1231.12 315.779 1232.68 316.859 1233.96 318.299L1231.48 320.779C1230.34 319.659 1229.08 318.846 1227.72 318.339C1226.39 317.806 1224.94 317.539 1223.36 317.539C1221.76 317.539 1220.27 317.806 1218.88 318.339C1217.52 318.872 1216.34 319.619 1215.32 320.579C1214.34 321.539 1213.56 322.686 1213 324.019C1212.47 325.326 1212.2 326.752 1212.2 328.299C1212.2 329.819 1212.47 331.246 1213 332.579C1213.56 333.886 1214.34 335.032 1215.32 336.019C1216.34 336.979 1217.52 337.726 1218.88 338.259C1220.24 338.792 1221.72 339.059 1223.32 339.059C1224.82 339.059 1226.24 338.832 1227.6 338.379C1228.99 337.899 1230.27 337.112 1231.44 336.019L1233.72 339.059C1232.34 340.232 1230.71 341.126 1228.84 341.739C1227 342.326 1225.1 342.619 1223.12 342.619ZM1233.72 339.059L1229.88 338.539V328.139H1233.72V339.059ZM1242.98 342.299V314.299H1254.78C1257.77 314.299 1260.4 314.886 1262.66 316.059C1264.96 317.232 1266.73 318.872 1267.98 320.979C1269.26 323.086 1269.9 325.526 1269.9 328.299C1269.9 331.072 1269.26 333.512 1267.98 335.619C1266.73 337.726 1264.96 339.366 1262.66 340.539C1260.4 341.712 1257.77 342.299 1254.78 342.299H1242.98ZM1246.98 338.819H1254.54C1256.86 338.819 1258.86 338.379 1260.54 337.499C1262.25 336.619 1263.57 335.392 1264.5 333.819C1265.44 332.219 1265.9 330.379 1265.9 328.299C1265.9 326.192 1265.44 324.352 1264.5 322.779C1263.57 321.206 1262.25 319.979 1260.54 319.099C1258.86 318.219 1256.86 317.779 1254.54 317.779H1246.98V338.819ZM1273 342.299L1285.68 314.299H1289.64L1302.36 342.299H1298.16L1286.84 316.539H1288.44L1277.12 342.299H1273ZM1278.4 335.299L1279.48 332.099H1295.24L1296.4 335.299H1278.4ZM1308.13 342.299V314.299H1319.05C1322.68 314.299 1325.53 315.166 1327.61 316.899C1329.69 318.606 1330.73 320.992 1330.73 324.059C1330.73 326.086 1330.27 327.832 1329.33 329.299C1328.4 330.739 1327.07 331.846 1325.33 332.619C1323.6 333.392 1321.51 333.779 1319.05 333.779H1310.33L1312.13 331.939V342.299H1308.13ZM1326.85 342.299L1319.73 332.139H1324.01L1331.21 342.299H1326.85ZM1312.13 332.339L1310.33 330.379H1318.93C1321.49 330.379 1323.43 329.832 1324.73 328.739C1326.07 327.619 1326.73 326.059 1326.73 324.059C1326.73 322.059 1326.07 320.512 1324.73 319.419C1323.43 318.326 1321.49 317.779 1318.93 317.779H1310.33L1312.13 315.779V332.339ZM1346.96 342.619C1344.82 342.619 1342.78 342.299 1340.84 341.659C1338.89 340.992 1337.36 340.139 1336.24 339.099L1337.72 335.979C1338.78 336.912 1340.14 337.686 1341.8 338.299C1343.45 338.912 1345.17 339.219 1346.96 339.219C1348.58 339.219 1349.9 339.032 1350.92 338.659C1351.93 338.286 1352.68 337.779 1353.16 337.139C1353.64 336.472 1353.88 335.726 1353.88 334.899C1353.88 333.939 1353.56 333.166 1352.92 332.579C1352.3 331.992 1351.49 331.526 1350.48 331.179C1349.49 330.806 1348.4 330.486 1347.2 330.219C1346 329.952 1344.78 329.646 1343.56 329.299C1342.36 328.926 1341.25 328.459 1340.24 327.899C1339.25 327.339 1338.45 326.592 1337.84 325.659C1337.22 324.699 1336.92 323.472 1336.92 321.979C1336.92 320.539 1337.29 319.219 1338.04 318.019C1338.81 316.792 1339.98 315.819 1341.56 315.099C1343.16 314.352 1345.18 313.979 1347.64 313.979C1349.26 313.979 1350.88 314.192 1352.48 314.619C1354.08 315.046 1355.46 315.659 1356.64 316.459L1355.32 319.659C1354.12 318.859 1352.85 318.286 1351.52 317.939C1350.18 317.566 1348.89 317.379 1347.64 317.379C1346.06 317.379 1344.77 317.579 1343.76 317.979C1342.74 318.379 1342 318.912 1341.52 319.579C1341.06 320.246 1340.84 320.992 1340.84 321.819C1340.84 322.806 1341.14 323.592 1341.76 324.179C1342.4 324.766 1343.21 325.232 1344.2 325.579C1345.21 325.926 1346.32 326.246 1347.52 326.539C1348.72 326.806 1349.92 327.112 1351.12 327.459C1352.34 327.806 1353.45 328.259 1354.44 328.819C1355.45 329.379 1356.26 330.126 1356.88 331.059C1357.49 331.992 1357.8 333.192 1357.8 334.659C1357.8 336.072 1357.41 337.392 1356.64 338.619C1355.86 339.819 1354.66 340.792 1353.04 341.539C1351.44 342.259 1349.41 342.619 1346.96 342.619ZM1385.32 342.299V314.299H1389.32V342.299H1385.32ZM1365.24 342.299V314.299H1369.24V342.299H1365.24ZM1368.84 329.819V326.339H1385.68V329.819H1368.84ZM1395.06 342.299L1407.74 314.299H1411.7L1424.42 342.299H1420.22L1408.9 316.539H1410.5L1399.18 342.299H1395.06ZM1400.46 335.299L1401.54 332.099H1417.3L1418.46 335.299H1400.46ZM1430.2 342.299V314.299H1433.48L1452 337.299H1450.28V314.299H1454.28V342.299H1451L1432.48 319.299H1434.2V342.299H1430.2Z" fill="#1E5327"/>
<path d="M554.515 325.299C555.619 325.299 556.515 326.195 556.515 327.299C556.515 328.404 555.619 329.299 554.515 329.299H483.515C482.41 329.299 481.515 328.404 481.515 327.299C481.515 326.195 482.41 325.299 483.515 325.299H554.515ZM1557.51 325.299C1558.62 325.299 1559.51 326.195 1559.51 327.299C1559.51 328.404 1558.62 329.299 1557.51 329.299H1486.51C1485.41 329.299 1484.51 328.404 1484.51 327.299C1484.51 326.195 1485.41 325.299 1486.51 325.299H1557.51Z" fill="#C08006"/>
</svg>
