<svg width="462" height="455" viewBox="0 0 462 455" fill="none" xmlns="http://www.w3.org/2000/svg">
<path fill-rule="evenodd" clip-rule="evenodd" d="M443.205 317.269C448.398 316.732 451.017 316.293 454.124 320.715C455.871 328.833 446.57 342.769 442.033 349.621C413.963 392.012 371.122 423.718 323.201 440.249C258.777 462.751 187.988 458.26 126.928 427.798C134.469 405.999 150.16 384.232 169.092 370.839C206.173 344.422 242.885 356.315 283.937 357.293C299.503 357.821 315.608 355.095 330.928 352.379C344.058 350.051 351.332 359.422 341.949 368.521C321.818 388.039 282.308 387.769 255.483 390.355C316.966 404.5 360.805 396.033 406.424 350.082C418.516 337.901 427.567 324.251 443.205 317.269ZM183.298 0.820312C183.129 0.980849 159.333 11.5616 156.326 12.9863C59.9836 58.6373 -3.54297 167.303 30.5635 272.793C48.2143 327.385 83.2803 370.053 133.841 394.844C131.793 398.641 120.956 422.492 119.609 423.437L117.006 422.452C64.0239 390.774 26.4797 346.472 9.00974 286.527C-7.68761 229.339 -1.00039 167.866 27.6045 115.602C52.6916 70.1723 92.4749 34.6089 140.434 14.7402C154.38 8.85216 167.878 4.88959 182.33 0.6875L183.298 0.820312ZM385.84 347.198C393.092 340.333 415.941 315.345 425.52 320.927C424.517 327.118 389.418 359.01 381.591 364.66C370.725 372.486 358.843 378.797 346.272 383.418L345.329 383.762C340.582 385.462 335.409 386.883 330.586 388.303C332.71 386.818 341.853 382.448 344.641 381.044L346.114 380.043C361.212 369.715 372.541 359.787 385.84 347.198Z" fill="#00295C"/>
<path d="M149.215 38.9627C159.235 32.418 168.01 26.5356 178.746 21.1508C218.452 1.13823 263.751 -4.90114 307.318 4.00947C356.422 14.5973 399.398 44.0426 426.989 86.0008C457.569 132.713 470.209 194.733 454.033 248.863L453.32 248.798L452.206 246.914C453.628 241.146 453.574 231.5 453.56 225.371C453.732 192.414 446.24 159.867 431.674 130.3C408.206 82.1443 366.303 45.4822 315.443 28.6069C263.319 10.734 199.831 15.7777 150.498 39.8956L149.215 38.9627Z" fill="#C08006"/>
<path d="M150.499 39.8956C148.441 41.1126 144.859 43.6498 142.697 43.5321C143.867 41.516 147.056 40.1418 149.216 38.9628L150.499 39.8956Z" fill="#C08006"/>
<path d="M452.206 246.914L453.32 248.798L454.033 248.863C453.526 252.896 452.55 257.108 451.699 261.106L449.336 261.264L449.384 261.733L451.329 262.323L449.539 262.644L451.054 262.973L449.672 263.088L450.253 263.794C448.74 261.162 451.476 250.429 452.206 246.914Z" fill="#C08006"/>
<path d="M120.397 87.4493C133.995 97.6277 138.565 99.6838 155.747 101.486C156.192 135.938 153.278 154.297 120.632 171.632C115.096 169.746 105.567 163.16 101.49 158.852C84.6312 141.037 85.3926 123.54 85.5486 101.426C99.6755 101.465 109.887 96.08 120.397 87.4493ZM90.285 106.265C90.0827 125.039 90.7761 140.691 104.716 155.545C107.471 158.481 117.312 165.444 120.899 166.228C148.158 149.589 150.801 136.118 151.039 105.837C138.508 104.359 130.718 101.945 120.498 93.8991C109.482 102.367 103.932 103.7 90.285 106.265Z" fill="#1E5327"/>
<path d="M120.207 98.0154C130.86 104.743 135.275 106.889 147.853 108.778C148.284 133.865 143.422 149.037 121.156 162.286C117.759 161.844 109.523 156.105 107.085 153.491C94.7125 140.224 93.2968 125.974 93.4927 109.13C105.098 106.742 110.545 105.353 120.207 98.0154ZM116.812 133.797L107.87 124.983L103.061 130.642L108.323 135.626L117.037 144.669C124.312 136.594 132.224 126.702 139.668 119.151C138.591 117.761 136.712 115.1 135.395 114.156L116.812 133.797Z" fill="#1E5327"/>
<path fill-rule="evenodd" clip-rule="evenodd" d="M211.697 129.44C221.581 128.672 229.264 132.465 238.78 134.744C244.82 136.191 253.84 134.603 256.133 140.115C254.447 148.592 233.689 144.79 226.225 144.36C231.234 146.535 236.53 147.98 241.949 148.652C257.299 150.693 255.84 144.253 267.636 136.335C271.381 133.82 275.266 130.801 279.984 131.489C282.811 133.401 281.951 132.401 283.335 135.667C278.126 142.519 265.63 153.144 258.148 157.403C241.66 166.789 228.054 161.209 211.127 156.378C206.534 158.469 201.834 161.432 197.154 159.837C194.037 156.085 195.81 140.851 195.781 133.913C201.452 132.926 206.258 131.222 211.697 129.44ZM235.526 71.3576C251.876 68.2677 267.635 79.016 270.719 95.3595C273.802 111.703 263.041 127.449 246.689 130.524C230.347 133.596 214.606 122.851 211.524 106.518C208.443 90.1846 219.187 74.445 235.526 71.3576ZM264.427 98.6554C263.174 85.8303 251.789 76.4291 238.952 77.6193C226.029 78.8177 216.544 90.2927 217.805 103.204C219.066 116.116 230.592 125.54 243.503 124.219C256.328 122.905 265.679 111.48 264.427 98.6554ZM230.897 86.2648C233.901 86.2232 250.145 86.1018 251.437 87.0939C249.669 88.6176 247.726 90.0628 246.621 92.0988L247.434 93.4523C248.992 93.593 249.32 93.5827 250.707 94.2892C249.942 97.0744 241.441 103.762 238.305 104.719C241.6 108.251 245.189 112.966 248.263 116.796C239.156 116.892 234.973 108.654 229.641 101.875C235.053 101.466 237.527 101.936 241.298 98.1672C240.641 95.8224 234.424 98.1337 230.976 96.1095L231.44 94.4914C234.032 92.636 236.728 94.0233 240.408 93.1584L240.306 91.425C237.381 89.0765 234.939 91.4697 231.347 89.214L230.897 86.2648Z" fill="#00295C"/>
<path fill-rule="evenodd" clip-rule="evenodd" d="M435.518 220.456C435.752 224.305 434.954 228.689 434.387 232.555C425.321 270.863 395.103 288.855 366.769 312.218C355.509 321.502 346.34 330.992 336.367 341.519C319.055 343.99 303.883 346.787 286.307 346.621C306.517 301.733 313.016 286.144 314.103 235.402C335.859 279.404 385.064 278.21 416.851 245.611C422.914 239.394 428.146 231.547 432.936 224.309H432.937L434.797 220.534L435.518 220.456ZM353.588 208.858C366.588 206.155 379.324 214.481 382.054 227.47C384.784 240.458 376.479 253.204 363.49 255.959C350.465 258.722 337.67 250.392 334.931 237.367C332.193 224.343 340.552 211.569 353.588 208.858ZM433.924 227.375H433.925H433.924Z" fill="#C08006"/>
<path fill-rule="evenodd" clip-rule="evenodd" d="M317.799 188.004C311.137 213.803 299.272 235.874 288.698 260.274C277.391 288.204 267.931 315.102 264.309 345.289C241.191 343.129 231.613 341.848 208.522 343.812C205.027 313.097 196.766 283.112 184.036 254.938C175.469 235.577 162.203 209.043 157.414 189.081C210.541 261.579 266.98 265.578 317.799 188.004ZM232.323 185.461C245.252 182.348 258.257 190.308 261.357 203.235C264.458 216.162 256.479 229.151 243.542 232.236C230.627 235.316 217.655 227.356 214.559 214.449C211.464 201.542 219.413 188.569 232.323 185.461Z" fill="#00295C"/>
<path fill-rule="evenodd" clip-rule="evenodd" d="M39.8784 211.322C51.1403 233.302 65.0304 251.281 87.8647 262.076C117.587 276.128 145.77 264.806 159.228 235.413C160.385 272.895 165.734 304.062 182.551 338.208L187.529 348.198C175.203 352.785 165.398 358.095 155.458 366.798C143.622 349.537 132.399 334.251 117.084 319.668C81.3757 285.663 44.0809 265.027 39.8784 211.322ZM113.053 208.982C125.958 207.671 137.537 216.933 139.083 229.806C140.63 242.679 131.576 254.419 118.727 256.198C110.205 257.379 101.709 253.869 96.5073 247.019C91.3064 240.168 90.2108 231.046 93.6411 223.159C97.0715 215.273 104.494 209.852 113.053 208.982Z" fill="#1E5327"/>
<path fill-rule="evenodd" clip-rule="evenodd" d="M352.082 123.388C353.145 127.509 357.248 145.917 358.944 147.891C362.171 146.479 366.548 133.745 368.331 129.654C371.249 138.148 377.896 134.26 386.934 134.38C382.606 140.87 372.422 151.091 366.668 157.099L356.175 167.473C347.83 158.894 331.61 143.728 325.831 134.377C329.853 134.376 333.974 134.457 337.964 134.026C338.99 133.915 339.335 133.043 340.172 132.004C343.221 132.038 342.583 136.231 346.333 137.438C348.174 135.869 350.801 126.679 352.082 123.388ZM337.999 95.8958C338.608 95.9485 339.216 96.0189 339.822 96.1077C348.827 97.4163 351.074 100.23 356.281 107.24C372.376 83.5957 401.404 99.9416 389.245 130.123L372.668 130.15L367.773 119.559C366.052 122.676 364.257 127.291 362.831 130.68L360.367 138.136C358.49 130.897 355.02 115.927 352.1 109.751C350.072 114.418 346.808 128.103 344.641 129.667C343.364 127.877 342.818 126.796 340.785 125.971C338.229 126.964 338.676 127.327 337.052 130.169L323.295 130.148C316.524 114.521 318.8 99.0417 337.999 95.8958Z" fill="#1E5327"/>
<path d="M176.049 165H174V89H176.049V165ZM300 165H297.951V89H300V165Z" fill="#C08006"/>
</svg>
